<svg width="1024" height="1024" viewBox="0 0 1024 1024" fill="none" xmlns="http://www.w3.org/2000/svg">
<path d="M337.6 470.4C244.8 524.8 216 624 206.4 699.2C0 696 0 608 0 600C1.6 507.2 20.8 427.2 84.8 384C115.2 432 163.2 465.6 220.8 465.6C260.8 465.6 297.6 448 324.8 420.8C328 438.4 331.2 454.4 337.6 470.4ZM220.8 137.6C132.8 137.6 108.8 195.2 108.8 257.6C108.8 320 153.6 403.2 220.8 403.2C288 403.2 332.8 320 332.8 257.6C332.8 195.2 308.8 137.6 220.8 137.6ZM940.8 384C910.4 430.4 862.4 465.6 806.4 465.6C764.8 465.6 729.6 448 700.8 420.8C699.2 436.8 694.4 452.8 689.6 468.8C784 523.2 812.8 622.4 820.8 697.6C1024 696 1024 609.6 1024 600C1022.4 505.6 1003.2 428.8 940.8 384ZM804.8 137.6C716.8 137.6 692.8 195.2 692.8 257.6C692.8 320 737.6 403.2 804.8 403.2C872 403.2 916.8 320 916.8 257.6C916.8 195.2 892.8 137.6 804.8 137.6ZM660.8 524.8C627.2 577.6 574.4 614.4 512 614.4C449.6 614.4 398.4 577.6 364.8 524.8C288 572.8 265.6 665.6 262.4 772.8C262.4 784 262.4 886.4 512 886.4C761.6 886.4 761.6 784 761.6 772.8C760 664 736 572.8 660.8 524.8ZM512 249.6C411.2 249.6 384 313.6 384 385.6C384 457.6 435.2 552 512 552C588.8 552 640 456 640 385.6C640 315.2 612.8 249.6 512 249.6Z" fill="#E5E8ED"/>
</svg>
