<svg width="1092" height="1024" viewBox="0 0 1092 1024" fill="none" xmlns="http://www.w3.org/2000/svg">
<path fill-rule="evenodd" clip-rule="evenodd" d="M184.082 439.619L171.977 423.802C161.711 410.376 142.465 407.801 129.043 418.07C115.589 428.37 113.015 447.619 123.312 461.045L182.029 537.892C187.024 544.421 194.44 548.682 202.622 549.693C210.774 550.705 219.017 548.375 225.453 543.256L298.603 485.016C311.842 474.471 314.049 455.16 303.507 441.918C292.965 428.707 273.689 426.5 260.45 437.044L244.545 449.704C262.074 355.906 319.044 270.078 408.222 218.949C569.631 126.408 775.813 182.38 868.331 343.829C960.849 505.277 904.891 711.51 743.482 804.051C582.073 896.592 375.921 840.62 283.403 679.171C274.976 664.488 256.252 659.4 241.572 667.83C226.893 676.228 221.806 694.988 230.203 709.67C339.546 900.454 583.206 966.603 773.974 857.234C964.741 747.864 1030.84 504.143 921.501 313.329C812.159 122.546 568.528 56.3972 377.76 165.767C272.003 226.398 204.553 328.318 184.082 439.619ZM576.679 266.277C441.38 266.277 331.517 376.168 331.517 511.5C331.517 646.832 441.38 756.723 576.679 756.723C711.979 756.723 821.842 646.832 821.842 511.5C821.842 376.168 711.979 266.277 576.679 266.277ZM546.034 388.889V542.153C546.034 552.391 551.152 561.985 559.671 567.656L651.607 628.962C665.704 638.341 684.735 634.54 694.112 620.471C703.49 606.37 699.69 587.335 685.623 577.955L607.325 525.753V388.889C607.325 371.968 593.596 358.236 576.679 358.236C559.763 358.236 546.034 371.968 546.034 388.889Z" fill="#E5E8ED"/>
</svg>
