<svg width="447" height="420" viewBox="0 0 447 420" fill="none" xmlns="http://www.w3.org/2000/svg">
<path d="M52.6672 132.667L182.374 35.3866L183.033 34.8926L202.854 20.0266L202.864 20.0189C210.202 14.516 213.872 11.764 217.902 10.7027C221.463 9.76573 225.205 9.76573 228.765 10.7029C232.795 11.764 236.465 14.516 243.804 20.0189L243.814 20.0266L263.609 34.8728L264.294 35.3866L394 132.667V341.733C394 365.629 394 377.578 389.35 386.704C385.26 394.732 378.732 401.26 370.704 405.349C361.578 410 349.629 410 325.734 410H287.334H159.334H120.934C97.0383 410 85.0906 410 75.9636 405.349C67.9354 401.26 61.4083 394.732 57.3176 386.704C52.6672 377.578 52.6672 365.629 52.6672 341.733V132.667Z" fill="#E5E8ED"/>
<path d="M159.334 410V252.133C159.334 240.185 159.334 234.211 161.659 229.648C163.704 225.633 166.968 222.371 170.982 220.325C175.546 218 181.52 218 193.467 218H253.2C265.149 218 271.123 218 275.686 220.325C279.701 222.371 282.963 225.633 285.008 229.648C287.334 234.211 287.334 240.185 287.334 252.133V410M10.0005 164.667L202.854 20.0266C210.199 14.5186 213.87 11.7645 217.902 10.7027C221.463 9.76573 225.205 9.76573 228.765 10.7029C232.797 11.7645 236.469 14.5186 243.814 20.0266L436.667 164.667M52.6672 132.667V341.733C52.6672 365.629 52.6672 377.578 57.3176 386.704C61.4083 394.732 67.9354 401.26 75.9636 405.349C85.0906 410 97.0383 410 120.934 410H325.734C349.629 410 361.578 410 370.704 405.349C378.732 401.26 385.26 394.732 389.35 386.704C394 377.578 394 365.629 394 341.733V132.667L264.294 35.3866C249.606 24.3703 242.261 18.8623 234.195 16.739C227.076 14.8648 219.592 14.8648 212.473 16.739C204.407 18.8623 197.062 24.3703 182.374 35.3866L52.6672 132.667Z" stroke="white" stroke-width="20" stroke-linecap="round" stroke-linejoin="round"/>
</svg>
