<svg width="1024" height="1024" viewBox="0 0 1024 1024" fill="none" xmlns="http://www.w3.org/2000/svg">
<g clip-path="url(#clip0_474_24)">
<path d="M930.005 238.037L631.339 36.48C558.848 -12.416 465.152 -12.416 392.661 36.48L94.0373 238.037C35.1573 277.717 0 343.808 0 414.891V810.667C0 928.299 95.7013 1024 213.333 1024H810.667C928.299 1024 1024 928.299 1024 810.667V414.891C1024 343.851 988.843 277.717 930.005 238.037ZM682.667 682.667C682.667 729.728 644.395 768 597.333 768H426.667C379.605 768 341.333 729.728 341.333 682.667V512C341.333 464.939 379.605 426.667 426.667 426.667H597.333C644.395 426.667 682.667 464.939 682.667 512V682.667ZM597.333 512L597.419 682.667H426.667V512H597.333Z" fill="#E5E8ED"/>
</g>
<defs>
<clipPath id="clip0_474_24">
<rect width="1024" height="1024" fill="white"/>
</clipPath>
</defs>
</svg>
