<svg width="1024" height="1024" viewBox="0 0 1024 1024" fill="none" xmlns="http://www.w3.org/2000/svg">
<path d="M881.856 739.94L626.784 484.867L579.921 531.292L413.527 364.918V226.639L217.872 113.83L115.412 216.245L228.268 411.875H366.564L532.726 578.016L485.199 625.072L740.936 880.81C759.767 899.606 784.776 910 811.412 910C838.049 910 863.058 899.639 881.856 880.81C920.715 841.956 920.715 778.794 881.856 739.94ZM391.374 625.205L438.669 577.917L371.945 511.201L143.144 739.94C104.285 778.794 104.285 841.956 143.144 880.81C161.975 899.606 186.984 910 213.621 910C240.257 910 265.266 899.639 284.065 880.81L465.571 699.326L391.407 625.172L391.374 625.205ZM881.79 247.759C900.322 283.525 909.721 321.98 909.721 362.062C909.721 446.711 867.176 521.562 802.412 566.559L627.017 391.186L580.121 437.578L479.919 337.389V191.206C525.353 143.186 589.42 113 660.595 113C699.818 113 737.581 122.033 772.886 139.932L783.481 145.312L664.779 265.327C638.84 291.262 638.84 333.304 664.779 359.24C690.718 385.175 732.765 385.175 758.704 359.24L877.372 239.291L881.756 247.793L881.79 247.759Z" fill="#E5E8ED"/>
</svg>
